<svg aria-hidden="true" style="position: absolute; width: 0; height: 0; overflow: hidden;" version="1.1" xmlns="http://www.w3.org/2000/svg" xmlns:xlink="http://www.w3.org/1999/xlink">
<defs>
<symbol id="arrow" viewBox="0 0 32 32">
<path d="M23.898 17.28l-3.302 3.315 1.805 1.805 6.4-6.4-6.4-6.4-1.805 1.805 3.302 3.315h-20.698v2.56h20.698z"></path>
</symbol>
<symbol id="calendar" viewBox="0 0 32 32">
<path fill="#fff" style="fill: var(--color1, #fff)" d="M6.667 6.333c-0.92 0-1.667 0.746-1.667 1.667v18.667c0 0.921 0.746 1.667 1.667 1.667h18.667c0.921 0 1.667-0.746 1.667-1.667v-18.667c0-0.92-0.746-1.667-1.667-1.667h-18.667zM3 8c0-2.025 1.642-3.667 3.667-3.667h18.667c2.025 0 3.667 1.642 3.667 3.667v18.667c0 2.025-1.642 3.667-3.667 3.667h-18.667c-2.025 0-3.667-1.642-3.667-3.667v-18.667z"></path>
<path fill="#fff" style="fill: var(--color1, #fff)" d="M21.333 1.667c0.552 0 1 0.448 1 1v5.333c0 0.552-0.448 1-1 1s-1-0.448-1-1v-5.333c0-0.552 0.448-1 1-1z"></path>
<path fill="#fff" style="fill: var(--color1, #fff)" d="M10.667 1.667c0.552 0 1 0.448 1 1v5.333c0 0.552-0.448 1-1 1s-1-0.448-1-1v-5.333c0-0.552 0.448-1 1-1z"></path>
<path fill="#fff" style="fill: var(--color1, #fff)" d="M3 13.333c0-0.552 0.448-1 1-1h24c0.552 0 1 0.448 1 1s-0.448 1-1 1h-24c-0.552 0-1-0.448-1-1z"></path>
</symbol>
<symbol id="logo" viewBox="0 0 82 32">
<path fill="#ffe6a3" style="fill: var(--color2, #ffe6a3); stroke: var(--color3, #ffd324)" stroke="#ffd324" stroke-linejoin="miter" stroke-linecap="butt" stroke-miterlimit="4" stroke-width="2.8571" d="M21.57 27.727c5.934-3.441 7.963-11.058 4.541-17.012s-11.005-7.997-16.938-4.556-7.963 11.058-4.541 17.012c3.422 5.953 11.005 7.997 16.938 4.556z"></path>
<path fill="#27120a" style="fill: var(--color4, #27120a)" d="M11.8 16.815c-0.295-1.107-0.257-2.276 0.11-3.361s1.045-2.036 1.95-2.734c0.905-0.697 1.995-1.11 3.134-1.185s2.273 0.191 3.261 0.764c0.988 0.573 1.784 1.427 2.289 2.454s0.694 2.182 0.545 3.318c-0.149 1.136-0.63 2.202-1.382 3.063s-1.742 1.479-2.843 1.776c-1.477 0.396-3.051 0.187-4.375-0.581s-2.291-2.032-2.688-3.515zM22.422 13.956c-0.268-1.003-0.826-1.905-1.603-2.589s-1.74-1.123-2.765-1.258c-1.025-0.136-2.068 0.037-2.995 0.497s-1.699 1.185-2.216 2.085c-0.517 0.9-0.757 1.933-0.689 2.97s0.44 2.030 1.069 2.854c0.63 0.824 1.488 1.442 2.468 1.776s2.035 0.369 3.034 0.1c1.339-0.362 2.479-1.243 3.173-2.449s0.882-2.639 0.525-3.984z"></path>
<path fill="#4d2211" style="fill: var(--color5, #4d2211)" d="M24.58 14.027c-0.113-0.184-0.276-0.33-0.471-0.422l0.039-0.058c0.041-0.062 0.077-0.128 0.109-0.195l0.035-0.080c0.019-0.046 0.038-0.091 0.054-0.138l0.022-0.076v-0.012c0.012-0.044 0.023-0.087 0.032-0.129s0.012-0.059 0.018-0.098c0.006-0.039 0.012-0.082 0.015-0.124s0-0.067 0.006-0.099v-0.217c0-0.038 0-0.076-0.008-0.111s-0.008-0.071-0.014-0.104c-0.006-0.033-0.011-0.070-0.018-0.105l-0.022-0.106-0.023-0.092-0.032-0.118-0.028-0.086-0.039-0.11-0.025-0.064-0.054-0.129v-0.011c-0.588-1.335-1.989-2.557-2.048-2.607-0.201-0.175-2.012-1.699-3.722-1.52-0.126 0.013-0.251 0.036-0.374 0.069-0.272 0.072-0.634 0.327-1.013 0.709-0.108-0.117-0.244-0.205-0.394-0.256-0.631-0.224-1.302-0.313-1.969-0.259-0.482 0.043-0.947 0.204-1.354 0.468s-0.743 0.624-0.98 1.049l-0.058 0.104c-0.116-0.044-0.241-0.060-0.365-0.048-0.078 0.009-0.154 0.028-0.227 0.058-2.904 1.199-3.085 3.62-2.935 4.956 0.014 0.118 0.029 0.236 0.048 0.339l0.026 0.146v0.014l0.031 0.148c0.054 0.241 0.194 0.454 0.394 0.599s0.445 0.211 0.691 0.185c0.24-0.026 0.463-0.138 0.628-0.314 0.349-0.364 0.809-0.602 1.307-0.677 0.183-0.030 0.353-0.112 0.491-0.236 0.213 0.090 0.445 0.127 0.675 0.107 0.594-0.041 1.19 0.030 1.757 0.21 0.142 0.044 0.292 0.053 0.439 0.028s0.285-0.086 0.403-0.175l0.016 0.028c0.006 0.011 0.012 0.021 0.019 0.031 0.027 0.044 0.055 0.086 0.085 0.13l0.021 0.031c0.028 0.040 0.058 0.080 0.091 0.118l0.024 0.033c0.029 0.038 0.060 0.074 0.099 0.118l0.027 0.033 0.101 0.118c0.011 0.012 0.022 0.024 0.032 0.035l0.104 0.105 0.041 0.041 0.092 0.086 0.061 0.057c0.053 0.046 0.107 0.092 0.162 0.137s0.109 0.087 0.163 0.129c0.157 0.12 0.321 0.232 0.491 0.334 0.054 0.033 0.109 0.064 0.163 0.095 0.108 0.060 0.219 0.118 0.329 0.165 0.055 0.025 0.109 0.048 0.163 0.071 0.102 0.041 0.207 0.079 0.312 0.118-0.049 0.129-0.069 0.267-0.059 0.404s0.050 0.271 0.116 0.391c0.059 0.106 0.118 0.217 0.171 0.339l0.011 0.024c0.021 0.045 0.041 0.091 0.062 0.142l0.025 0.061c0.018 0.041 0.034 0.085 0.051 0.129l0.024 0.064c0.023 0.064 0.046 0.13 0.064 0.19l0.007 0.022c0.019 0.063 0.038 0.128 0.054 0.193l0.015 0.066c0.013 0.052 0.025 0.106 0.035 0.161l0.013 0.066c0.014 0.074 0.027 0.15 0.036 0.227 0.032 0.247 0.127 0.481 0.278 0.679-0.107 0.168-0.16 0.366-0.152 0.566 0 0.053 0 0.118 0 0.172-0.002 0.097-0.010 0.193-0.022 0.289-0.006 0.044-0.014 0.090-0.022 0.135v0.021c-0.009 0.046-0.020 0.095-0.035 0.146v0.013c-0.013 0.047-0.028 0.096-0.045 0.141v0.017c-0.018 0.047-0.038 0.095-0.059 0.143l-0.012 0.027c-0.022 0.048-0.047 0.097-0.076 0.15l-0.012 0.019c-0.034 0.060-0.064 0.108-0.094 0.151-0.13 0.187-0.193 0.413-0.179 0.641s0.105 0.444 0.258 0.613c0.059 0.066 0.127 0.125 0.202 0.172 0.159 0.102 0.344 0.158 0.533 0.16 0.055 0 0.118 0 0.172 0h0.048c0.053 0 0.106 0 0.169 0h0.023c0.066 0 0.134-0.008 0.203-0.015l0.084-0.008c0.045 0 0.091-0.009 0.136-0.015h0.031c0.156-0.021 0.314-0.048 0.471-0.084l-0.131-0.582 0.142 0.58c1.036-0.236 1.875-0.727 2.495-1.474 0.537-0.673 0.891-1.475 1.027-2.326 0.020-0.109 0.019-0.221-0.006-0.329s-0.070-0.21-0.135-0.3c0.038-0.033 0.075-0.064 0.118-0.098s0.096-0.092 0.146-0.142l0.041-0.044 0.086-0.095 0.040-0.047 0.011-0.013 0.072-0.089 0.046-0.061 0.061-0.086 0.044-0.065 0.056-0.091 0.038-0.065 0.047-0.087c0 0 0.026-0.048 0.035-0.070s0.028-0.060 0.044-0.093l0.006-0.013 0.021-0.050c0.021-0.050 0.040-0.1 0.059-0.151l0.019-0.060 0.009-0.028 0.020-0.065 0.020-0.076v-0.020l0.017-0.065 0.018-0.084 0.012-0.069c0-0.030 0.011-0.059 0.014-0.091l0.008-0.064 0.011-0.090v-0.198c0.022-0.946-0.356-1.791-0.677-2.336z"></path>
<path fill="#de9f2d" style="fill: var(--color6, #de9f2d)" d="M16.657 8.491c-0.481 0.827-1.513 2.852-1.217 4.76 0.011 0.060 0.007 0.123-0.013 0.181s-0.055 0.11-0.101 0.151c-0.046 0.041-0.102 0.069-0.162 0.081s-0.122 0.009-0.181-0.010c-0.64-0.203-1.312-0.283-1.981-0.236-0.206 0.018-0.411-0.042-0.574-0.168s-0.274-0.31-0.309-0.514c-0.151-0.835-0.179-2.245 0.735-3.802 0.968-1.654 2.775-1.278 3.603-0.995 0.053 0.018 0.101 0.048 0.142 0.088s0.071 0.088 0.090 0.141c0.019 0.053 0.026 0.11 0.021 0.166s-0.023 0.11-0.052 0.159z"></path>
<path fill="#ffd324" style="fill: var(--color3, #ffd324)" opacity="0.5" d="M16.13 9.512l-0.021-0.014c-0.104-0.053-0.194 0.096-0.245 0.178-0.187 0.304-0.212 0.681-0.394 0.985-0.102 0.171-0.259 0.3-0.372 0.463-0.136 0.201-0.165 0.444-0.213 0.677-0.065 0.314-0.164 0.605-0.423 0.809-0.418 0.328-1.147 0.395-1.63 0.191-0.687-0.288-0.75-1.083-0.725-1.813-0.094 0.579-0.090 1.17 0.012 1.748 0.035 0.204 0.146 0.388 0.309 0.514s0.369 0.187 0.574 0.168c0.669-0.047 1.341 0.033 1.981 0.236 0.058 0.019 0.121 0.023 0.181 0.010s0.116-0.040 0.162-0.081c0.046-0.041 0.081-0.093 0.101-0.151s0.024-0.121 0.013-0.181c-0.207-1.342 0.24-2.74 0.69-3.742z"></path>
<path fill="#de9f2d" style="fill: var(--color6, #de9f2d)" d="M11.919 9.298c0.041-0.016 0.085-0.020 0.129-0.012s0.083 0.030 0.114 0.061c0.031 0.031 0.053 0.070 0.063 0.113s0.006 0.088-0.009 0.129c-0.288 0.755-0.717 2.272-0.143 3.524 0.087 0.19-0.074 0.41-0.28 0.443-0.628 0.096-1.207 0.398-1.647 0.858-0.051 0.056-0.116 0.097-0.189 0.119s-0.15 0.022-0.223 0.002c-0.073-0.020-0.139-0.060-0.191-0.115s-0.088-0.124-0.103-0.198c-0.274-1.262-0.361-3.751 2.479-4.924z"></path>
<path fill="#ffd324" style="fill: var(--color3, #ffd324)" opacity="0.5" d="M11.834 11.024c-0.094-0.013-0.118 0.053-0.162 0.177-0.053 0.15-0.085 0.307-0.098 0.465-0.036 0.325-0.016 0.657-0.085 0.976-0.118 0.569-0.706 1.063-1.247 1.226-0.406 0.118-0.728 0.043-0.9-0.236 0.022 0.199 0.054 0.396 0.098 0.591 0.015 0.074 0.051 0.143 0.103 0.198s0.118 0.095 0.191 0.115c0.073 0.020 0.15 0.019 0.223-0.002s0.138-0.062 0.189-0.119c0.44-0.46 1.019-0.762 1.647-0.858 0.206-0.033 0.367-0.253 0.28-0.443-0.309-0.675-0.327-1.42-0.239-2.091z"></path>
<path fill="#de9f2d" style="fill: var(--color6, #de9f2d)" d="M23.672 12.862c0.992-1.522-1.91-4.037-1.91-4.037s-2-1.739-3.556-1.327c-0.981 0.26-4.352 4.661-1.206 7.222s5.919-0.702 6.672-1.858z"></path>
<path fill="#ffd324" style="fill: var(--color3, #ffd324)" opacity="0.5" d="M23.231 10.473c0.019 0.041 0.038 0.084 0.054 0.128 0.346 0.916 0.069 1.902-0.542 2.631-0.26 0.312-0.566 0.581-0.965 0.686-0.256 0.069-0.526 0.059-0.785 0.118-0.289 0.080-0.566 0.199-0.823 0.354-0.863 0.454-2.010 0.542-2.869 0.022-0.345-0.216-0.631-0.516-0.83-0.872-0.114-0.204-0.209-0.419-0.285-0.64-0.039-0.109-0.127-0.376-0.256-0.41l-0.213 0.044c0.108 0.782 0.487 1.536 1.277 2.186 3.144 2.562 5.919-0.702 6.672-1.858 0.462-0.695 0.094-1.61-0.435-2.389z"></path>
<path fill="#de9f2d" style="fill: var(--color6, #de9f2d)" d="M23.468 13.821c-0.72 0.827-2.424 2.139-4.341 2.245-0.061 0.001-0.121 0.018-0.174 0.050s-0.096 0.076-0.127 0.13c-0.030 0.053-0.046 0.114-0.046 0.176s0.016 0.122 0.047 0.175c0.33 0.587 0.546 1.232 0.636 1.9 0.025 0.206 0.126 0.395 0.283 0.529s0.359 0.205 0.565 0.197c0.845-0.025 2.221-0.286 3.552-1.506 1.411-1.291 0.674-2.99 0.227-3.745-0.123-0.208-0.466-0.338-0.622-0.15z"></path>
<path fill="#ffd324" style="fill: var(--color3, #ffd324)" opacity="0.5" d="M24.316 16.724c-0.178 0.326-0.405 0.657-0.729 0.849-0.3 0.178-0.623 0.165-0.959 0.164-0.131-0.007-0.262 0.015-0.384 0.065s-0.232 0.124-0.322 0.22c-0.128 0.128-0.268 0.244-0.418 0.346-0.282 0.189-0.62 0.354-0.967 0.343-0.558-0.014-0.726-0.513-0.932-0.945-0.097-0.245-0.228-0.474-0.39-0.68-0.052-0.062-0.124-0.104-0.203-0.118 0.229 0.485 0.381 1.003 0.451 1.536 0.025 0.206 0.126 0.395 0.283 0.529s0.359 0.205 0.565 0.197c0.845-0.025 2.221-0.286 3.552-1.506 0.262-0.226 0.472-0.508 0.614-0.824s0.214-0.661 0.209-1.008c-0.097 0.289-0.221 0.568-0.37 0.833z"></path>
<path fill="#de9f2d" style="fill: var(--color6, #de9f2d)" d="M23.706 18.776c0.009-0.044 0.004-0.090-0.012-0.131s-0.046-0.077-0.082-0.102c-0.037-0.025-0.080-0.039-0.125-0.040s-0.088 0.012-0.126 0.037c-0.675 0.439-2.063 1.181-3.403 0.872-0.203-0.046-0.383 0.158-0.374 0.366 0.037 0.636-0.137 1.267-0.493 1.795-0.043 0.061-0.069 0.133-0.074 0.208s0.010 0.15 0.044 0.217c0.034 0.067 0.086 0.123 0.15 0.162s0.137 0.060 0.212 0.061c1.287 0.020 3.731-0.411 4.284-3.445z"></path>
<path fill="#ffd324" style="fill: var(--color3, #ffd324)" opacity="0.5" d="M21.676 21.525c-0.433 0.155-1.259 0.324-1.576-0.136-0.181-0.261-0.134-0.621-0.158-0.92-0.019-0.221-0.076-0.538-0.353-0.473-0.007 0.564-0.18 1.114-0.496 1.579-0.043 0.061-0.069 0.133-0.074 0.208s0.010 0.15 0.044 0.217c0.034 0.067 0.086 0.123 0.15 0.162s0.137 0.060 0.212 0.061c0.909 0.011 2.395-0.203 3.384-1.398-0.331 0.301-0.715 0.538-1.133 0.698z"></path>
<path fill="#fcee21" style="fill: var(--color7, #fcee21)" opacity="0.2" d="M22.891 10.844c-0.017-0.084-0.054-0.162-0.109-0.228-0.588-0.737-1.3-1.569-2.108-2.070-0.627-0.389-1.734-0.709-2.432-0.414-1.584 0.672-2.503 3.597-1.722 5.098 0.806 1.549 3.376 1.218 4.596 0.438 0.635-0.406 1.529-1.114 1.828-1.837 0.067-0.158 0.098-0.329 0.089-0.5s-0.057-0.338-0.14-0.488z"></path>
<path fill="#fcee21" style="fill: var(--color7, #fcee21)" opacity="0.2" d="M23.962 14.368c-0.007-0.026-0.019-0.050-0.035-0.071s-0.036-0.039-0.059-0.053c-0.023-0.013-0.049-0.022-0.075-0.026s-0.053-0.002-0.079 0.005c-0.038-0.006-0.077-0-0.112 0.017s-0.064 0.043-0.083 0.077c-0.363 0.534-1.014 0.945-1.567 1.265-0.323 0.185-0.663 0.338-1.016 0.456-0.307 0.103-0.7 0.131-0.979 0.298-0.726 0.436-0.095 1.637 0.559 1.772 0.46 0.096 0.875-0.118 1.209-0.416 0.111-0.099 0.219-0.392 0.34-0.481 0.266-0.195 0.416 0.065 0.762 0.086 0.161 0.022 0.325-0.005 0.471-0.078 0.993-0.553 0.957-1.938 0.665-2.852z"></path>
<path fill="#fcee21" style="fill: var(--color7, #fcee21)" opacity="0.2" d="M22.879 19.137c-0.048 0.028-0.095 0.060-0.141 0.093-0.421 0.247-0.907 0.332-1.387 0.389-0.296 0.034-0.665 0-0.889 0.236-0.316 0.333-0.188 0.945 0.155 1.213 0.433 0.335 0.996 0.080 1.392-0.184 0.448-0.301 1.215-0.934 1.246-1.518 0.006-0.046-0.002-0.093-0.023-0.135s-0.052-0.077-0.092-0.101c-0.040-0.024-0.085-0.036-0.132-0.035s-0.091 0.016-0.13 0.042z"></path>
<path fill="#fff" style="fill: var(--color1, #fff)" d="M38.13 12.162c-0.082-0.090-0.182-0.134-0.301-0.134h-4.931c-0.119 0-0.219 0.045-0.301 0.134-0.082 0.082-0.123 0.187-0.123 0.314v7.048c0 0.127 0.041 0.235 0.123 0.325 0.082 0.082 0.182 0.123 0.301 0.123h0.792c0.275 0 0.413-0.149 0.413-0.448v-5.815h2.521v5.815c0 0.299 0.137 0.448 0.413 0.448h0.792c0.119 0 0.219-0.041 0.301-0.123 0.082-0.090 0.123-0.198 0.123-0.325v-7.048c0-0.127-0.041-0.232-0.123-0.314z"></path>
<path fill="#fff" style="fill: var(--color1, #fff)" d="M42.070 13.742v1.322h1.707c0.119 0 0.219 0.041 0.301 0.123 0.082 0.090 0.123 0.194 0.123 0.314v0.751c0 0.119-0.041 0.224-0.123 0.314-0.082 0.082-0.182 0.123-0.301 0.123h-1.707v1.613h2.365c0.119 0 0.219 0.045 0.301 0.134 0.082 0.082 0.123 0.187 0.123 0.314v0.773c0 0.127-0.041 0.235-0.123 0.325-0.082 0.082-0.182 0.123-0.301 0.123h-3.358c-0.179 0-0.331-0.067-0.457-0.202-0.119-0.134-0.179-0.291-0.179-0.471v-6.555c0-0.187 0.063-0.344 0.19-0.471 0.112-0.134 0.26-0.202 0.446-0.202h3.358c0.119 0 0.219 0.041 0.301 0.123 0.082 0.090 0.123 0.198 0.123 0.325v0.773c0 0.127-0.041 0.232-0.123 0.314-0.082 0.090-0.182 0.134-0.301 0.134h-2.365z"></path>
<path fill="#fff" style="fill: var(--color1, #fff)" d="M47.078 19.972c-0.119 0-0.219-0.041-0.301-0.123-0.082-0.090-0.123-0.194-0.123-0.314v-7.014c0-0.127 0.041-0.235 0.123-0.325 0.082-0.082 0.182-0.123 0.301-0.123h0.781c0.119 0 0.219 0.041 0.301 0.123 0.082 0.090 0.123 0.198 0.123 0.325v2.711h0.011l2.198-2.924c0.111-0.157 0.268-0.235 0.468-0.235h0.893c0.275 0 0.413 0.138 0.413 0.415 0 0.082-0.030 0.172-0.089 0.269l-2.465 3.227 2.476 3.328c0.060 0.082 0.089 0.168 0.089 0.258 0 0.276-0.138 0.415-0.413 0.415l-0.915-0.011c-0.193 0-0.346-0.078-0.457-0.235l-2.153-2.88h-0.056v2.678c0 0.119-0.041 0.224-0.123 0.314-0.082 0.082-0.182 0.123-0.301 0.123h-0.781z"></path>
<path fill="#fff" style="fill: var(--color1, #fff)" d="M60.096 19.356c0.007 0.030 0.011 0.082 0.011 0.157 0 0.127-0.041 0.235-0.123 0.325-0.089 0.090-0.197 0.134-0.323 0.134h-0.703c-0.268 0-0.439-0.134-0.513-0.403l-0.39-1.333h-1.997l-0.402 1.333c-0.074 0.269-0.242 0.403-0.502 0.403h-0.692c-0.126 0-0.234-0.045-0.323-0.134-0.082-0.090-0.123-0.198-0.123-0.325 0-0.075 0.004-0.127 0.011-0.157l2.142-6.947c0.075-0.261 0.245-0.392 0.513-0.392h0.759c0.268 0 0.439 0.131 0.513 0.392l2.142 6.947zM57.051 14.807l-0.524 1.804h1.049l-0.524-1.804z"></path>
<path fill="#fff" style="fill: var(--color1, #fff)" d="M67.151 14.695c0 0.71-0.242 1.322-0.725 1.838-0.491 0.53-1.086 0.796-1.785 0.796h-0.77v2.196c0 0.299-0.138 0.448-0.413 0.448h-0.792c-0.275 0-0.413-0.149-0.413-0.448v-6.779c0-0.179 0.060-0.336 0.179-0.471 0.127-0.134 0.279-0.202 0.457-0.202h1.751c0.692 0 1.287 0.265 1.785 0.796 0.483 0.515 0.725 1.124 0.725 1.826zM65.523 14.695c0-0.269-0.093-0.497-0.279-0.683-0.171-0.194-0.39-0.291-0.658-0.291h-0.714v1.961h0.714c0.253 0 0.472-0.097 0.658-0.291s0.279-0.426 0.279-0.695z"></path>
<path fill="#fff" style="fill: var(--color1, #fff)" d="M74.349 12.028c0.119 0 0.219 0.045 0.301 0.134 0.082 0.082 0.123 0.187 0.123 0.314v7.048c0 0.127-0.041 0.235-0.123 0.325-0.082 0.082-0.182 0.123-0.301 0.123h-0.792c-0.275 0-0.413-0.149-0.413-0.448v-2.79h-2.521v2.79c0 0.299-0.138 0.448-0.413 0.448h-0.792c-0.119 0-0.219-0.041-0.301-0.123-0.082-0.090-0.123-0.198-0.123-0.325v-7.048c0-0.127 0.041-0.232 0.123-0.314 0.082-0.090 0.182-0.134 0.301-0.134h0.792c0.119 0 0.216 0.045 0.29 0.134 0.082 0.082 0.123 0.187 0.123 0.314v2.599h2.521v-2.599c0-0.127 0.041-0.232 0.123-0.314 0.074-0.090 0.171-0.134 0.29-0.134h0.792z"></path>
<path fill="#fff" style="fill: var(--color1, #fff)" d="M78.468 14.571c0-0.246 0.074-0.452 0.223-0.616 0.156-0.157 0.357-0.235 0.602-0.235h0.792v1.681h-0.792c-0.238 0-0.435-0.078-0.591-0.235s-0.234-0.355-0.234-0.594zM76.683 19.524c0 0.127 0.041 0.235 0.123 0.325 0.082 0.082 0.186 0.123 0.312 0.123h0.803c0.186 0 0.331-0.082 0.435-0.247l1.573-2.678h0.156v2.476c0 0.127 0.041 0.235 0.123 0.325 0.082 0.082 0.182 0.123 0.301 0.123h0.781c0.119 0 0.219-0.041 0.301-0.123 0.082-0.090 0.123-0.198 0.123-0.325v-6.779c0-0.187-0.063-0.344-0.19-0.471-0.111-0.134-0.26-0.202-0.446-0.202h-1.841c-0.677 0-1.249 0.246-1.718 0.739-0.461 0.478-0.691 1.061-0.691 1.748 0 0.493 0.13 0.945 0.39 1.356 0.253 0.411 0.595 0.713 1.026 0.908l-1.495 2.454c-0.045 0.075-0.067 0.157-0.067 0.247z"></path>
</symbol>
<symbol id="pin" viewBox="0 0 32 32">
<path fill="#fff" style="fill: var(--color1, #fff)" d="M16 2.333c-2.917 0-5.715 1.159-7.778 3.222s-3.222 4.861-3.222 7.778c0 4.265 2.766 8.354 5.726 11.479 1.46 1.541 2.923 2.801 4.022 3.676 0.51 0.406 0.94 0.728 1.252 0.955 0.313-0.227 0.742-0.549 1.252-0.955 1.099-0.875 2.562-2.135 4.022-3.676 2.96-3.125 5.726-7.214 5.726-11.479 0-2.917-1.159-5.715-3.222-7.778s-4.861-3.222-7.778-3.222zM16 30.667c-0.555 0.832-0.555 0.832-0.555 0.832l-0.003-0.002-0.038-0.025c-0.025-0.017-0.061-0.042-0.108-0.074-0.093-0.064-0.227-0.159-0.397-0.281-0.339-0.245-0.821-0.603-1.397-1.062-1.151-0.916-2.688-2.239-4.228-3.865-3.040-3.209-6.274-7.786-6.274-12.854 0-3.448 1.37-6.754 3.808-9.192s5.745-3.808 9.192-3.808c3.448 0 6.754 1.37 9.192 3.808s3.808 5.745 3.808 9.192c0 5.069-3.234 9.646-6.274 12.854-1.54 1.626-3.077 2.949-4.228 3.865-0.576 0.459-1.057 0.817-1.397 1.062-0.17 0.123-0.304 0.217-0.397 0.281-0.047 0.032-0.083 0.057-0.108 0.074l-0.038 0.025-0.003 0.002c0 0-0.001 0.001-0.556-0.831zM16 30.667l0.555 0.832c-0.336 0.224-0.774 0.224-1.11-0l0.555-0.832z"></path>
<path fill="#fff" style="fill: var(--color1, #fff)" d="M16 10.333c-1.657 0-3 1.343-3 3s1.343 3 3 3 3-1.343 3-3c0-1.657-1.343-3-3-3zM11 13.333c0-2.761 2.239-5 5-5s5 2.239 5 5c0 2.761-2.239 5-5 5s-5-2.239-5-5z"></path>
</symbol>
<symbol id="smartphone" viewBox="0 0 32 32">
<path fill="none" stroke="#fff" style="stroke: var(--color1, #fff)" stroke-linejoin="round" stroke-linecap="round" stroke-miterlimit="4" stroke-width="2" d="M22.667 2.667h-13.333c-1.473 0-2.667 1.194-2.667 2.667v21.333c0 1.473 1.194 2.667 2.667 2.667h13.333c1.473 0 2.667-1.194 2.667-2.667v-21.333c0-1.473-1.194-2.667-2.667-2.667z"></path>
<path fill="none" stroke="#fff" style="stroke: var(--color1, #fff)" stroke-linejoin="round" stroke-linecap="round" stroke-miterlimit="4" stroke-width="2" d="M16 24h0.013"></path>
</symbol>
</defs>
</svg>
